<?xml version="1.0" encoding="utf-8"?>
<!-- Generator: Adobe Illustrator 19.2.0, SVG Export Plug-In . SVG Version: 6.00 Build 0)  -->
<svg version="1.1" id="Capa_1" xmlns="http://www.w3.org/2000/svg" xmlns:xlink="http://www.w3.org/1999/xlink" x="0px" y="0px"
	 viewBox="0 0 18 14" style="enable-background:new 0 0 18 14;" xml:space="preserve">
<style type="text/css">
	.st0{fill:#FF9C00;}
</style>
<g>
	<path class="st0" d="M14.4,0.9c0-0.5,0-0.9,0-0.9L9,0l0,0h0h0l0,0L3.6,0c0,0,0,0.3,0,0.9H0v0.6c0,0.1,0,3.2,2,4.8
		c0.8,0.7,1.8,1,3,1c0.2,0,0.4,0,0.6,0C6.3,8.2,7,8.8,7.9,9.1v2.5H5.3v1.5H4.5V14H9H9h4.5v-0.9h-0.9v-1.5h-2.6V9.1
		c0.9-0.3,1.7-0.9,2.4-1.8c0.2,0,0.4,0,0.6,0c1.2,0,2.2-0.3,3-1c2-1.7,2-4.7,2-4.8V0.9H14.4z M2.8,5.4C1.6,4.5,1.3,2.8,1.2,2h2.4
		C3.7,3.1,4,4.4,4.5,5.5C4.6,5.8,4.7,6,4.9,6.2C4,6.1,3.3,5.9,2.8,5.4z M15.2,5.4c-0.6,0.5-1.3,0.7-2.1,0.7c0.1-0.2,0.2-0.4,0.3-0.6
		C14,4.4,14.3,3.1,14.4,2h2.4C16.7,2.8,16.4,4.5,15.2,5.4z"/>
</g>
</svg>
