<?xml version="1.0" encoding="utf-8"?>
<!-- Generator: Adobe Illustrator 19.2.0, SVG Export Plug-In . SVG Version: 6.00 Build 0)  -->
<svg version="1.1" id="Capa_1" xmlns="http://www.w3.org/2000/svg" xmlns:xlink="http://www.w3.org/1999/xlink" x="0px" y="0px"
	 viewBox="0 0 18 16" style="enable-background:new 0 0 18 16;" xml:space="preserve">
<style type="text/css">
	.st0{fill:#FF9C00;}
</style>
<g>
	<path class="st0" d="M15.9,3.7h-3.5V1.6c0-0.9-0.7-1.6-1.6-1.6H7.2C6.4,0,5.6,0.7,5.6,1.6v2.1H2.1C1,3.7,0,4.7,0,5.9v8
		C0,15,1,16,2.1,16h13.7c1.2,0,2.1-1,2.1-2.1v-8C18,4.7,17,3.7,15.9,3.7z M6.7,1.6c0-0.3,0.2-0.5,0.5-0.5h3.5c0.3,0,0.5,0.2,0.5,0.5
		v2.1H6.7L6.7,1.6L6.7,1.6z M11,8.3c-0.3,0.1-0.6-0.1-0.7-0.3C10.2,7.7,9.8,7.3,9,7.3c-0.7,0-1,0.4-1.1,0.9c-0.1,0.5,0.4,1,1.2,1.1
		c1.6,0.3,2.1,1.4,2,2.3c-0.1,0.9-0.7,1.6-1.6,1.8v0.6c0,0.3-0.2,0.5-0.5,0.5c-0.3,0-0.5-0.2-0.5-0.5v-0.6c-1-0.2-1.6-0.8-1.8-1.4
		c-0.1-0.3,0.1-0.6,0.3-0.7c0.3-0.1,0.6,0.1,0.7,0.3c0.1,0.3,0.5,0.7,1.3,0.7c0.7,0,1-0.4,1.1-0.9c0.1-0.5-0.4-1-1.2-1.1
		C7.2,10,6.8,8.9,6.8,8c0.1-0.9,0.7-1.6,1.6-1.8V5.7c0-0.3,0.2-0.5,0.5-0.5s0.5,0.2,0.5,0.5v0.6c1,0.2,1.6,0.8,1.8,1.4
		C11.4,7.9,11.3,8.3,11,8.3z"/>
</g>
</svg>
