<?xml version="1.0" encoding="UTF-8" standalone="no"?>
<svg
   xmlns:dc="http://purl.org/dc/elements/1.1/"
   xmlns:cc="http://creativecommons.org/ns#"
   xmlns:rdf="http://www.w3.org/1999/02/22-rdf-syntax-ns#"
   xmlns:svg="http://www.w3.org/2000/svg"
   xmlns="http://www.w3.org/2000/svg"
   xml:space="preserve"
   style="enable-background:new 0 0 16 20;"
   viewBox="0 0 16 20"
   y="0px"
   x="0px"
   id="Capa_1"
   version="1.1"><metadata
     id="metadata15"><rdf:RDF><cc:Work
         rdf:about=""><dc:format>image/svg+xml</dc:format><dc:type
           rdf:resource="http://purl.org/dc/dcmitype/StillImage" /><dc:title></dc:title></cc:Work></rdf:RDF></metadata><defs
     id="defs13" /><style
     id="style3"
     type="text/css">
	.st0{fill:#FF9C00;}
</style><g
     id="g5"><path
       id="path7"
       d="M7.3,15.1c1.9,0,3.6-0.7,4.9-2c2.7-2.7,2.7-7.1,0-9.8c-1.3-1.3-3-2-4.9-2c-1.9,0-3.6,0.7-4.9,2   c-1.3,1.3-2,3.1-2,4.9c0,1.9,0.7,3.6,2,4.9C3.7,14.4,5.5,15.1,7.3,15.1z M3.4,10.3c0.1-0.1,0.1-0.3,0.2-0.4l2,2   c-0.7,0.4-1.3,0.5-1.8,0.5c-0.3,0-0.5-0.1-0.6-0.2C3,11.9,3.1,11.2,3.4,10.3z M2.9,4.6l1.8,1.8C4.2,6.9,3.8,7.4,3.4,7.9L1.9,6.4   C2.1,5.7,2.4,5.1,2.9,4.6z M5.6,2.7l1.5,1.5C6.6,4.6,6.1,5,5.5,5.5L3.7,3.7C4.3,3.3,4.9,2.9,5.6,2.7z M11.4,4.1   c0.3,0.3,0.2,1.2-0.3,2.3l-2-2c0.7-0.4,1.3-0.5,1.8-0.5C11.1,3.9,11.3,4,11.4,4.1z M10.4,7.5C10.1,8,9.7,8.6,9.2,9.1L6.4,6.3   C6.9,5.8,7.5,5.4,8,5.1L10.4,7.5z M11.8,11.8L10,10c0.5-0.5,0.9-1.1,1.3-1.6l1.5,1.5C12.6,10.6,12.3,11.2,11.8,11.8z M9.1,13.6   l-1.5-1.5c0.5-0.4,1.1-0.8,1.6-1.3l1.8,1.8C10.4,13.1,9.8,13.4,9.1,13.6z M5.5,7.2L8.3,10c-0.5,0.5-1.1,0.9-1.6,1.3L4.3,8.8   C4.6,8.3,5,7.7,5.5,7.2z M5,13.4c0.5-0.1,1-0.4,1.5-0.6l1.1,1.1c-0.1,0-0.2,0-0.3,0C6.5,13.9,5.8,13.7,5,13.4z M13.1,8.4L12,7.3   c0.2-0.3,0.3-0.6,0.4-0.8c0.1-0.2,0.2-0.4,0.2-0.7C13,6.7,13.1,7.6,13.1,8.4z M9.7,2.9C9.2,3,8.7,3.3,8.2,3.5L7.1,2.4   c0.1,0,0.2,0,0.3,0C8.2,2.4,8.9,2.6,9.7,2.9z M1.6,7.9L2.7,9C2.6,9.3,2.4,9.5,2.3,9.8c-0.1,0.2-0.2,0.4-0.2,0.7   C1.8,9.7,1.6,9,1.6,8.2C1.6,8.1,1.6,8,1.6,7.9z"
       class="st0" /><path
       id="path9"
       d="M12.5,2.8c2.9,2.9,3,7.7,0.1,10.6c-1.4,1.4-3.3,2.2-5.3,2.2c0,0,0,0,0,0c-2,0-3.9-0.9-5.4-2.3   c-0.2-0.2-0.6-0.2-0.8,0l-1,1c-0.2,0.2-0.2,0.6,0,0.9c0.1,0.1,0.3,0.2,0.4,0.2s0.3-0.1,0.4-0.2l0.6-0.6C3.1,16,5,16.7,7,16.8V18   H4.9c-0.3,0-0.6,0.3-0.6,0.6c0,0.3,0.3,0.6,0.6,0.6h5.3c0.3,0,0.6-0.3,0.6-0.6c0-0.3-0.3-0.6-0.6-0.6H8.2v-1.2   c2-0.2,3.8-1.1,5.3-2.5c3.3-3.3,3.4-8.5,0.3-11.9l0.6-0.6c0.2-0.2,0.2-0.6,0-0.9c-0.2-0.2-0.6-0.2-0.9,0l-1,1   C12.3,2.2,12.3,2.6,12.5,2.8z"
       class="st0" /></g></svg>