<?xml version="1.0" encoding="UTF-8" standalone="no"?>
<!-- Created with Inkscape (http://www.inkscape.org/) -->

<svg
   xmlns:dc="http://purl.org/dc/elements/1.1/"
   xmlns:cc="http://creativecommons.org/ns#"
   xmlns:rdf="http://www.w3.org/1999/02/22-rdf-syntax-ns#"
   xmlns:svg="http://www.w3.org/2000/svg"
   xmlns="http://www.w3.org/2000/svg"
   xmlns:sodipodi="http://sodipodi.sourceforge.net/DTD/sodipodi-0.dtd"
   xmlns:inkscape="http://www.inkscape.org/namespaces/inkscape"
   width="22mm"
   height="22mm"
   viewBox="0 0 77.952756 77.952756"
   id="svg2"
   version="1.1"
   inkscape:version="0.91 r13725"
   sodipodi:docname="world_black.svg">
  <defs
     id="defs4" />
  <sodipodi:namedview
     id="base"
     pagecolor="#ffffff"
     bordercolor="#666666"
     borderopacity="1.0"
     inkscape:pageopacity="0.0"
     inkscape:pageshadow="2"
     inkscape:zoom="3.8852201"
     inkscape:cx="64.285714"
     inkscape:cy="11.428571"
     inkscape:document-units="px"
     inkscape:current-layer="layer1"
     showgrid="false"
     inkscape:window-width="1920"
     inkscape:window-height="1017"
     inkscape:window-x="-8"
     inkscape:window-y="-8"
     inkscape:window-maximized="1" />
  <metadata
     id="metadata7">
    <rdf:RDF>
      <cc:Work
         rdf:about="">
        <dc:format>image/svg+xml</dc:format>
        <dc:type
           rdf:resource="http://purl.org/dc/dcmitype/StillImage" />
        <dc:title></dc:title>
      </cc:Work>
    </rdf:RDF>
  </metadata>
  <g
     inkscape:label="Layer 1"
     inkscape:groupmode="layer"
     id="layer1"
     transform="translate(0,-974.40945)">
    <g
       transform="translate(-0.25716608,1.0331667)"
       id="layer1-9"
       style="fill:#000000">
      <g
         transform="matrix(4.2079,0,0,4.2079,6.7412,970.49)"
         id="g5"
         style="fill:#000000">
        <path
           d="m 7.3,15.1 c 1.9,0 3.6,-0.7 4.9,-2 2.7,-2.7 2.7,-7.1 0,-9.8 -1.3,-1.3 -3,-2 -4.9,-2 -1.9,0 -3.6,0.7 -4.9,2 -1.3,1.3 -2,3.1 -2,4.9 0,1.9 0.7,3.6 2,4.9 1.3,1.3 3.1,2 4.9,2 z M 3.4,10.3 C 3.5,10.2 3.5,10 3.6,9.9 l 2,2 C 4.9,12.3 4.3,12.4 3.8,12.4 3.5,12.4 3.3,12.3 3.2,12.2 3,11.9 3.1,11.2 3.4,10.3 Z M 2.9,4.6 4.7,6.4 C 4.2,6.9 3.8,7.4 3.4,7.9 L 1.9,6.4 C 2.1,5.7 2.4,5.1 2.9,4.6 Z M 5.6,2.7 7.1,4.2 C 6.6,4.6 6.1,5 5.5,5.5 L 3.7,3.7 C 4.3,3.3 4.9,2.9 5.6,2.7 Z m 5.8,1.4 c 0.3,0.3 0.2,1.2 -0.3,2.3 l -2,-2 C 9.8,4 10.4,3.9 10.9,3.9 c 0.2,0 0.4,0.1 0.5,0.2 z m -1,3.4 C 10.1,8 9.7,8.6 9.2,9.1 L 6.4,6.3 C 6.9,5.8 7.5,5.4 8,5.1 l 2.4,2.4 z M 11.8,11.8 10,10 c 0.5,-0.5 0.9,-1.1 1.3,-1.6 l 1.5,1.5 c -0.2,0.7 -0.5,1.3 -1,1.9 z M 9.1,13.6 7.6,12.1 c 0.5,-0.4 1.1,-0.8 1.6,-1.3 l 1.8,1.8 c -0.6,0.5 -1.2,0.8 -1.9,1 z M 5.5,7.2 8.3,10 C 7.8,10.5 7.2,10.9 6.7,11.3 L 4.3,8.8 C 4.6,8.3 5,7.7 5.5,7.2 Z M 5,13.4 C 5.5,13.3 6,13 6.5,12.8 l 1.1,1.1 -0.3,0 C 6.5,13.9 5.8,13.7 5,13.4 Z M 13.1,8.4 12,7.3 C 12.2,7 12.3,6.7 12.4,6.5 12.5,6.3 12.6,6.1 12.6,5.8 13,6.7 13.1,7.6 13.1,8.4 Z M 9.7,2.9 C 9.2,3 8.7,3.3 8.2,3.5 l -1.1,-1.1 0.3,0 c 0.8,0 1.5,0.2 2.3,0.5 z M 1.6,7.9 2.7,9 C 2.6,9.3 2.4,9.5 2.3,9.8 2.2,10 2.1,10.2 2.1,10.5 1.8,9.7 1.6,9 1.6,8.2 l 0,-0.3 z"
           class="st0"
           id="path7"
           inkscape:connector-curvature="0"
           style="fill:#000000" />
        <path
           d="m 12.5,2.8 c 2.9,2.9 3,7.7 0.1,10.6 -1.4,1.4 -3.3,2.2 -5.3,2.2 -2,0 -3.9,-0.9 -5.4,-2.3 -0.2,-0.2 -0.6,-0.2 -0.8,0 l -1,1 c -0.2,0.2 -0.2,0.6 0,0.9 0.1,0.1 0.3,0.2 0.4,0.2 0.1,0 0.3,-0.1 0.4,-0.2 L 1.5,14.6 C 3.1,16 5,16.7 7,16.8 L 7,18 4.9,18 c -0.3,0 -0.6,0.3 -0.6,0.6 0,0.3 0.3,0.6 0.6,0.6 l 5.3,0 c 0.3,0 0.6,-0.3 0.6,-0.6 0,-0.3 -0.3,-0.6 -0.6,-0.6 l -2,0 0,-1.2 c 2,-0.2 3.8,-1.1 5.3,-2.5 3.3,-3.3 3.4,-8.5 0.3,-11.9 l 0.6,-0.6 c 0.2,-0.2 0.2,-0.6 0,-0.9 -0.2,-0.2 -0.6,-0.2 -0.9,0 l -1,1 c -0.2,0.3 -0.2,0.7 0,0.9 z"
           class="st0"
           id="path9"
           inkscape:connector-curvature="0"
           style="fill:#000000" />
      </g>
    </g>
  </g>
  <style
     id="style3337"
     type="text/css">
	.st0{fill:#FFFFFF;}
</style>
  <style
     id="style3353"
     type="text/css">
	.st0{fill:#FF9C00;}
</style>
  <style
     id="style3619"
     type="text/css">
	.st0{fill:#FFFFFF;}
</style>
  <style
     id="style3638"
     type="text/css">
	.st0{fill:#FFFFFF;}
</style>
  <style
     type="text/css"
     id="style3">
	.st0{fill:#FFFFFF;}
</style>
  <style
     type="text/css"
     id="style3337-1">.st0{fill:#FFFFFF;}</style>
  <style
     type="text/css"
     id="style3353-1">.st0{fill:#FF9C00;}</style>
  <style
     type="text/css"
     id="style3619-4">.st0{fill:#FFFFFF;}</style>
  <style
     type="text/css"
     id="style3-9">
	.st0{fill:#FFFFFF;}
</style>
  <style
     type="text/css"
     id="style3-8">
	.st0{fill:#FFFFFF;}
</style>
  <style
     type="text/css"
     id="style3337-9">.st0{fill:#FFFFFF;}</style>
  <style
     type="text/css"
     id="style3353-5">.st0{fill:#FF9C00;}</style>
  <style
     type="text/css"
     id="style3619-9">.st0{fill:#FFFFFF;}</style>
  <style
     type="text/css"
     id="style3638-2">.st0{fill:#FFFFFF;}</style>
  <style
     type="text/css"
     id="style3-4">.st0{fill:#FFFFFF;}</style>
  <style
     type="text/css"
     id="style3337-1-6">.st0{fill:#FFFFFF;}</style>
  <style
     type="text/css"
     id="style3353-1-3">.st0{fill:#FF9C00;}</style>
  <style
     type="text/css"
     id="style3619-4-1">.st0{fill:#FFFFFF;}</style>
  <style
     type="text/css"
     id="style3-9-1">.st0{fill:#FFFFFF;}</style>
  <style
     type="text/css"
     id="style3-8-4">.st0{fill:#FFFFFF;}</style>
  <style
     type="text/css"
     id="style3337-6">
	.st0{fill:#FFFFFF;}
</style>
  <style
     type="text/css"
     id="style3353-8">
	.st0{fill:#FF9C00;}
</style>
  <style
     type="text/css"
     id="style3619-2">
	.st0{fill:#FFFFFF;}
</style>
  <style
     type="text/css"
     id="style3638-5">
	.st0{fill:#FFFFFF;}
</style>
  <style
     id="style3-2"
     type="text/css">
	.st0{fill:#FFFFFF;}
</style>
  <style
     id="style3337-1-0"
     type="text/css">.st0{fill:#FFFFFF;}</style>
  <style
     id="style3353-1-7"
     type="text/css">.st0{fill:#FF9C00;}</style>
  <style
     id="style3619-4-8"
     type="text/css">.st0{fill:#FFFFFF;}</style>
  <style
     id="style3-9-5"
     type="text/css">
	.st0{fill:#FFFFFF;}
</style>
  <style
     id="style3-8-48"
     type="text/css">
	.st0{fill:#FFFFFF;}
</style>
  <style
     id="style3337-9-3"
     type="text/css">.st0{fill:#FFFFFF;}</style>
  <style
     id="style3353-5-7"
     type="text/css">.st0{fill:#FF9C00;}</style>
  <style
     id="style3619-9-2"
     type="text/css">.st0{fill:#FFFFFF;}</style>
  <style
     id="style3638-2-1"
     type="text/css">.st0{fill:#FFFFFF;}</style>
  <style
     id="style3-4-4"
     type="text/css">.st0{fill:#FFFFFF;}</style>
  <style
     id="style3337-1-6-3"
     type="text/css">.st0{fill:#FFFFFF;}</style>
  <style
     id="style3353-1-3-7"
     type="text/css">.st0{fill:#FF9C00;}</style>
  <style
     id="style3619-4-1-5"
     type="text/css">.st0{fill:#FFFFFF;}</style>
  <style
     id="style3-9-1-7"
     type="text/css">.st0{fill:#FFFFFF;}</style>
  <style
     id="style3-8-4-7"
     type="text/css">.st0{fill:#FFFFFF;}</style>
  <style
     type="text/css"
     id="style3337-66">.st0{fill:#FFFFFF;}</style>
  <style
     type="text/css"
     id="style3337-0">.st0{fill:#FFFFFF;}</style>
  <style
     type="text/css"
     id="style3353-12">.st0{fill:#FF9C00;}</style>
  <style
     type="text/css"
     id="style3619-25">.st0{fill:#FFFFFF;}</style>
  <style
     type="text/css"
     id="style3638-4">.st0{fill:#FFFFFF;}</style>
  <style
     type="text/css"
     id="style3-24">.st0{fill:#FFFFFF;}</style>
  <style
     type="text/css"
     id="style3337-1-9">.st0{fill:#FFFFFF;}</style>
  <style
     type="text/css"
     id="style3353-1-72">.st0{fill:#FF9C00;}</style>
  <style
     type="text/css"
     id="style3619-4-6">.st0{fill:#FFFFFF;}</style>
  <style
     type="text/css"
     id="style3-9-8">.st0{fill:#FFFFFF;}</style>
  <style
     type="text/css"
     id="style3-8-2">.st0{fill:#FFFFFF;}</style>
  <style
     type="text/css"
     id="style3337-9-0">.st0{fill:#FFFFFF;}</style>
  <style
     type="text/css"
     id="style3353-5-4">.st0{fill:#FF9C00;}</style>
  <style
     type="text/css"
     id="style3619-9-5">.st0{fill:#FFFFFF;}</style>
  <style
     type="text/css"
     id="style3638-2-11">.st0{fill:#FFFFFF;}</style>
  <style
     type="text/css"
     id="style3-4-1">.st0{fill:#FFFFFF;}</style>
  <style
     type="text/css"
     id="style3337-1-6-5">.st0{fill:#FFFFFF;}</style>
  <style
     type="text/css"
     id="style3353-1-3-2">.st0{fill:#FF9C00;}</style>
  <style
     type="text/css"
     id="style3619-4-1-6">.st0{fill:#FFFFFF;}</style>
  <style
     type="text/css"
     id="style3-9-1-4">.st0{fill:#FFFFFF;}</style>
  <style
     type="text/css"
     id="style3-8-4-3">.st0{fill:#FFFFFF;}</style>
  <style
     type="text/css"
     id="style3337-6-1">.st0{fill:#FFFFFF;}</style>
  <style
     type="text/css"
     id="style3353-8-3">.st0{fill:#FF9C00;}</style>
  <style
     type="text/css"
     id="style3619-2-9">.st0{fill:#FFFFFF;}</style>
  <style
     type="text/css"
     id="style3638-5-6">.st0{fill:#FFFFFF;}</style>
  <style
     type="text/css"
     id="style3-2-5">.st0{fill:#FFFFFF;}</style>
  <style
     type="text/css"
     id="style3337-1-0-1">.st0{fill:#FFFFFF;}</style>
  <style
     type="text/css"
     id="style3353-1-7-8">.st0{fill:#FF9C00;}</style>
  <style
     type="text/css"
     id="style3619-4-8-3">.st0{fill:#FFFFFF;}</style>
  <style
     type="text/css"
     id="style3-9-5-2">.st0{fill:#FFFFFF;}</style>
  <style
     type="text/css"
     id="style3-8-48-7">.st0{fill:#FFFFFF;}</style>
  <style
     type="text/css"
     id="style3337-9-3-9">.st0{fill:#FFFFFF;}</style>
  <style
     type="text/css"
     id="style3353-5-7-1">.st0{fill:#FF9C00;}</style>
  <style
     type="text/css"
     id="style3619-9-2-7">.st0{fill:#FFFFFF;}</style>
  <style
     type="text/css"
     id="style3638-2-1-9">.st0{fill:#FFFFFF;}</style>
  <style
     type="text/css"
     id="style3-4-4-7">.st0{fill:#FFFFFF;}</style>
  <style
     type="text/css"
     id="style3337-1-6-3-5">.st0{fill:#FFFFFF;}</style>
  <style
     type="text/css"
     id="style3353-1-3-7-5">.st0{fill:#FF9C00;}</style>
  <style
     type="text/css"
     id="style3619-4-1-5-8">.st0{fill:#FFFFFF;}</style>
  <style
     type="text/css"
     id="style3-9-1-7-8">.st0{fill:#FFFFFF;}</style>
  <style
     type="text/css"
     id="style3-8-4-7-4">.st0{fill:#FFFFFF;}</style>
  <style
     type="text/css"
     id="style3337-8">.st0{fill:#FFFFFF;}</style>
  <style
     type="text/css"
     id="style3353-14">.st0{fill:#FF9C00;}</style>
  <style
     type="text/css"
     id="style3619-3">.st0{fill:#FFFFFF;}</style>
  <style
     type="text/css"
     id="style3638-1">.st0{fill:#FFFFFF;}</style>
  <style
     type="text/css"
     id="style3-45">.st0{fill:#FFFFFF;}</style>
  <style
     type="text/css"
     id="style3337-1-4">.st0{fill:#FFFFFF;}</style>
  <style
     type="text/css"
     id="style3353-1-2">.st0{fill:#FF9C00;}</style>
  <style
     type="text/css"
     id="style3619-4-0">.st0{fill:#FFFFFF;}</style>
  <style
     type="text/css"
     id="style3-9-6">.st0{fill:#FFFFFF;}</style>
  <style
     type="text/css"
     id="style3-8-5">.st0{fill:#FFFFFF;}</style>
  <style
     type="text/css"
     id="style3337-9-4">.st0{fill:#FFFFFF;}</style>
  <style
     type="text/css"
     id="style3353-5-0">.st0{fill:#FF9C00;}</style>
  <style
     type="text/css"
     id="style3619-9-8">.st0{fill:#FFFFFF;}</style>
  <style
     type="text/css"
     id="style3638-2-0">.st0{fill:#FFFFFF;}</style>
  <style
     type="text/css"
     id="style3-4-8">.st0{fill:#FFFFFF;}</style>
  <style
     type="text/css"
     id="style3337-1-6-55">.st0{fill:#FFFFFF;}</style>
  <style
     type="text/css"
     id="style3353-1-3-6">.st0{fill:#FF9C00;}</style>
  <style
     type="text/css"
     id="style3619-4-1-9">.st0{fill:#FFFFFF;}</style>
  <style
     type="text/css"
     id="style3-9-1-5">.st0{fill:#FFFFFF;}</style>
  <style
     type="text/css"
     id="style3-8-4-8">.st0{fill:#FFFFFF;}</style>
  <style
     type="text/css"
     id="style3337-6-0">.st0{fill:#FFFFFF;}</style>
  <style
     type="text/css"
     id="style3353-8-5">.st0{fill:#FF9C00;}</style>
  <style
     type="text/css"
     id="style3619-2-0">.st0{fill:#FFFFFF;}</style>
  <style
     type="text/css"
     id="style3638-5-1">.st0{fill:#FFFFFF;}</style>
  <style
     type="text/css"
     id="style3-2-7">.st0{fill:#FFFFFF;}</style>
  <style
     type="text/css"
     id="style3337-1-0-2">.st0{fill:#FFFFFF;}</style>
  <style
     type="text/css"
     id="style3353-1-7-4">.st0{fill:#FF9C00;}</style>
  <style
     type="text/css"
     id="style3619-4-8-30">.st0{fill:#FFFFFF;}</style>
  <style
     type="text/css"
     id="style3-9-5-8">.st0{fill:#FFFFFF;}</style>
  <style
     type="text/css"
     id="style3-8-48-4">.st0{fill:#FFFFFF;}</style>
  <style
     type="text/css"
     id="style3337-9-3-4">.st0{fill:#FFFFFF;}</style>
  <style
     type="text/css"
     id="style3353-5-7-0">.st0{fill:#FF9C00;}</style>
  <style
     type="text/css"
     id="style3619-9-2-73">.st0{fill:#FFFFFF;}</style>
  <style
     type="text/css"
     id="style3638-2-1-8">.st0{fill:#FFFFFF;}</style>
  <style
     type="text/css"
     id="style3-4-4-5">.st0{fill:#FFFFFF;}</style>
  <style
     type="text/css"
     id="style3337-1-6-3-8">.st0{fill:#FFFFFF;}</style>
  <style
     type="text/css"
     id="style3353-1-3-7-3">.st0{fill:#FF9C00;}</style>
  <style
     type="text/css"
     id="style3619-4-1-5-6">.st0{fill:#FFFFFF;}</style>
  <style
     type="text/css"
     id="style3-9-1-7-3">.st0{fill:#FFFFFF;}</style>
  <style
     type="text/css"
     id="style3-8-4-7-0">.st0{fill:#FFFFFF;}</style>
</svg>
