<?xml version="1.0" encoding="UTF-8" standalone="no"?>
<svg
   xmlns:dc="http://purl.org/dc/elements/1.1/"
   xmlns:cc="http://creativecommons.org/ns#"
   xmlns:rdf="http://www.w3.org/1999/02/22-rdf-syntax-ns#"
   xmlns:svg="http://www.w3.org/2000/svg"
   xmlns="http://www.w3.org/2000/svg"
   version="1.1"
   id="svg2"
   viewBox="0 0 177.16534 177.16535"
   height="50mm"
   width="50mm">
  <defs
     id="defs4" />
  <metadata
     id="metadata7">
    <rdf:RDF>
      <cc:Work
         rdf:about="">
        <dc:format>image/svg+xml</dc:format>
        <dc:type
           rdf:resource="http://purl.org/dc/dcmitype/StillImage" />
        <dc:title></dc:title>
      </cc:Work>
    </rdf:RDF>
  </metadata>
  <g
     transform="translate(0,-875.19685)"
     id="layer1">
    <g
       style="fill:#e6e6e6"
       transform="matrix(1.451378,0,0,0.82905979,-560.7765,627.33661)"
       id="g3619">
      <path
         id="path3631"
         d="m 454.86601,442.57653 c 34.07609,-37.08651 38.56253,-41.61612 38.56253,-38.93364 0,0.54722 -16.93125,18.51507 -37.625,39.92857 l -37.62499,38.93363 36.68746,-39.92856 z"
         style="fill:#e6e6e6" />
      <path
         id="path3629"
         d="m 444.42855,434.21939 c 18.21146,-19.40715 33.89924,-35.28571 34.86174,-35.28571 0.9625,0 -13.15028,15.87856 -31.36174,35.28571 -18.21147,19.40714 -33.89925,35.2857 -34.86175,35.2857 -0.9625,0 13.15029,-15.87856 31.36175,-35.2857 z"
         style="fill:#e6e6e6" />
      <path
         id="path3627"
         d="m 444.35942,359.00511 -33.18087,-36.21428 34.125,35.21235 c 31.69493,32.70486 35.71712,37.21621 33.18087,37.21621 -0.51927,0 -15.87552,-16.29643 -34.125,-36.21428 z m 8.75346,-5.57143 -34.93433,-38.07142 35.87499,37.07316 c 19.73125,20.39024 35.875,37.52238 35.875,38.07143 0,2.68679 -4.3685,-1.71226 -36.81566,-37.07317 z"
         style="fill:#e6e6e6" />
      <path
         id="path3625"
         d="m 479.42854,411.93367 c 4.52111,-5.10714 9.0077,-9.28571 9.9702,-9.28571 0.9625,0 -1.94909,4.17857 -6.4702,9.28571 -4.52111,5.10715 -9.0077,9.28572 -9.9702,9.28572 -0.9625,0 1.94909,-4.17857 6.4702,-9.28572 z"
         style="fill:#e6e6e6" />
      <path
         id="path3623"
         d="m 419.92855,475.91213 c 0,-0.56184 12.20625,-13.51541 27.125,-28.78571 l 27.12499,-27.76418 -26.1624,28.78571 c -24.29906,26.73554 -28.08759,30.48045 -28.08759,27.76418 z"
         style="fill:#e6e6e6" />
      <path
         id="path3621"
         d="m 412.92855,476.80339 c 0,-3.06929 15.75133,-22.2335 35.00295,-42.58713 l 35.00295,-37.0066 -35.70105,-38.0162 c -19.63557,-20.90891 -34.53815,-39.25029 -33.11684,-40.75862 1.42132,-1.50833 19.85644,15.58729 40.96695,37.99027 l 38.38273,40.7327 -40.26884,42.61305 c -22.14787,23.43718 -40.26885,40.10182 -40.26885,37.03253 z"
         style="fill:#e6e6e6" />
    </g>
  </g>
</svg>
