<?xml version="1.0" encoding="UTF-8" standalone="no"?>
<svg
   xmlns:dc="http://purl.org/dc/elements/1.1/"
   xmlns:cc="http://creativecommons.org/ns#"
   xmlns:rdf="http://www.w3.org/1999/02/22-rdf-syntax-ns#"
   xmlns:svg="http://www.w3.org/2000/svg"
   xmlns="http://www.w3.org/2000/svg"
   xmlns:sodipodi="http://sodipodi.sourceforge.net/DTD/sodipodi-0.dtd"
   xmlns:inkscape="http://www.inkscape.org/namespaces/inkscape"
   version="1.1"
   id="svg2"
   viewBox="0 0 354.33071 354.3307"
   height="100mm"
   width="100mm"
   inkscape:version="0.91 r13725"
   sodipodi:docname="ask_shure.svg">
  <sodipodi:namedview
     pagecolor="#ffffff"
     bordercolor="#666666"
     borderopacity="1"
     objecttolerance="10"
     gridtolerance="10"
     guidetolerance="10"
     inkscape:pageopacity="0"
     inkscape:pageshadow="2"
     inkscape:window-width="1366"
     inkscape:window-height="706"
     id="namedview14"
     showgrid="false"
     inkscape:zoom="0.31716402"
     inkscape:cx="372.04724"
     inkscape:cy="372.04724"
     inkscape:window-x="-8"
     inkscape:window-y="-8"
     inkscape:window-maximized="1"
     inkscape:current-layer="layer1" />
  <defs
     id="defs4" />
  <metadata
     id="metadata7">
    <rdf:RDF>
      <cc:Work
         rdf:about="">
        <dc:format>image/svg+xml</dc:format>
        <dc:type
           rdf:resource="http://purl.org/dc/dcmitype/StillImage" />
        <dc:title></dc:title>
      </cc:Work>
    </rdf:RDF>
  </metadata>
  <g
     transform="matrix(0.48639628,0,0,0.46615056,11.098312,-131.16757)"
     id="layer1">
    <g
       style="fill:#333333"
       transform="translate(961.32122,222.56578)"
       id="g3347">
      <path
         id="path3361"
         d="m -641.85712,746.68893 c -15.85695,-1.46108 -22.4505,-2.5891 -38,-6.50101 -43.66825,-10.98596 -83.08414,-30.63009 -120,-59.80572 -12.35714,-9.76619 -38.68606,-36.0771 -48.19582,-48.16285 -32.80926,-41.69658 -54.51595,-88.48075 -63.79657,-137.5 -5.03971,-26.61921 -5.03971,-92.38079 0,-119 9.28476,-49.04112 31.10523,-96.05328 63.81997,-137.5 9.99749,-12.66596 36.1385,-38.69798 49.17242,-48.96742 40.40869,-31.83804 88.11267,-53.86399 136.5,-63.02497 26.61921,-5.03971 92.38079,-5.03971 119,0 49.04112,9.28476 96.05328,31.10524 137.5,63.81996 12.21957,9.64516 38.52727,35.95286 48.17242,48.17243 29.48793,37.35864 49.09148,76.92838 60.19325,121.5 3.6888,14.8099 4.56928,20.31767 6.15465,38.5 2.56878,29.46103 1.35445,75.26746 -2.55822,96.5 -2.55428,13.86106 -9.20294,37.62186 -14.13073,50.5 -16.68792,43.61172 -39.68077,79.05095 -72.73059,112.10078 -26.28489,26.28488 -50.27521,43.59036 -83.04874,59.90742 -25.08103,12.48717 -53.73935,22.19721 -79.55204,26.9539 -20.73837,3.82161 -70.49215,5.08817 -98.5,2.50748 z m 74,-33.46141 c 51.81418,-7.50006 93.81927,-24.90833 136,-56.36278 12.23816,-9.12608 41.51931,-38.40723 50.64539,-50.64539 31.78118,-42.61887 49.12585,-84.78226 56.56309,-137.5 0.74681,-5.29362 1.26969,-19.0896 1.26969,-33.5 0,-32.34532 -3.1226,-53.79621 -12.0095,-82.5 -13.67838,-44.17976 -35.74646,-80.69605 -68.95824,-114.10593 -19.70819,-19.82575 -32.86722,-30.32409 -54.01043,-43.08979 -82.35607,-49.72439 -184.22305,-53.60008 -270.52348,-10.2925 -27.08724,13.59302 -48.25253,29.0912 -71.56303,52.40171 -18.96207,18.96206 -29.61275,32.38923 -42.10921,53.08651 -53.65567,88.86726 -53.65567,200.13274 0,289 12.7657,21.14321 23.26404,34.30224 43.08979,54.01043 48.00163,47.71701 104.10546,73.6317 175.10593,80.88247 7.25957,0.74136 48.8546,-0.27807 56.5,-1.38473 z m -54.63419,-99.89974 c -16.64307,-5.67708 -27.26681,-19.51609 -28.17318,-36.69979 -0.9475,-17.96366 7.85167,-32.38637 24.52522,-40.19924 5.07867,-2.37976 6.9988,-2.7094 15.78215,-2.7094 9.24817,0 10.53547,0.25105 17.12217,3.33912 9.1767,4.30235 16.19639,11.35899 20.55269,20.66088 2.97988,6.36286 3.27903,7.86469 3.28662,16.5 0.008,8.92192 -0.2151,9.95638 -3.66377,17 -4.07521,8.32329 -6.35224,11.14654 -13.21482,16.38487 -9.20849,7.029 -25.05046,9.53258 -36.21708,5.72356 z m 3.82941,-109.16514 c -23.57981,-4.69815 -32.55264,-31.41188 -19.63043,-58.44329 5.09501,-10.65802 14.08084,-20.42989 32.47804,-35.31908 27.99637,-22.65797 30.73192,-25.09391 35.92237,-31.98793 6.90994,-9.17789 9.26067,-15.68111 9.30186,-25.73334 0.0585,-14.28673 -5.08656,-24.80128 -15.39688,-31.46516 -10.09704,-6.52603 -22.96916,-8.94202 -37.60473,-7.05808 -18.7405,2.41234 -26.71761,9.2134 -38.81129,33.08942 -10.86393,21.4482 -16.5238,26.80815 -30.72286,29.09485 -10.70447,1.7239 -21.90085,-1.18524 -29.64693,-7.70314 -10.66617,-8.97499 -12.08404,-29.35822 -3.45473,-49.66488 4.5378,-10.67845 10.23619,-18.80655 19.97102,-28.48635 17.53494,-17.43585 41.83277,-29.47711 68.24003,-33.81769 8.01763,-1.31786 14.08326,-1.58336 27,-1.18185 26.04789,0.8097 44.16165,4.86248 63.75028,14.26351 35.32569,16.9536 53.40827,45.07505 53.40886,83.05976 1.9e-4,12.56729 -2.17445,22.91118 -6.97237,33.16463 -8.35314,17.85121 -20.52537,30.52769 -51.77089,53.91557 -25.80851,19.31818 -29.10826,22.76582 -34.2928,35.82976 -8.72443,21.98373 -14.45873,27.2252 -31.46377,28.7596 -3.3,0.29777 -7.93715,0.15543 -10.30478,-0.31631 z"
         style="fill:#333333"
         inkscape:connector-curvature="0" />
      <path
         id="path3359"
         d="m -638.85712,746.68477 c -60.47382,-5.78139 -124.77646,-34.51693 -172.4345,-77.05747 -58.4509,-52.17446 -96.24734,-125.59626 -103.1233,-200.32304 -2.77215,-30.12736 -1.30654,-69.41423 3.51431,-94.20382 20.93367,-107.64422 98.199,-197.56794 202.09252,-235.20137 34.02265,-12.32405 66.08399,-17.67156 105.95097,-17.67156 56.11743,0 104.07754,12.08713 151.23456,38.11483 89.46329,49.37809 151.24904,142.17512 160.32324,240.7921 5.82555,63.31114 -4.028,119.6973 -30.16844,172.63664 -43.44089,87.976 -124.44948,149.98982 -221.38747,169.47687 -23.63132,4.75051 -66.28737,6.27758 -96.00189,3.43682 z m 71.5,-32.87035 c 50.81171,-6.67771 98.97325,-27.04947 139.50184,-59.00762 9.67409,-7.62835 36.95726,-34.91152 44.58561,-44.58561 17.12947,-21.72321 34.46647,-52.21759 43.31587,-76.18913 7.72376,-20.92239 13.55331,-45.08724 16.23857,-67.31271 1.70985,-14.15214 1.70985,-48.84786 0,-63 -6.45446,-53.42253 -26.34265,-101.17807 -59.97001,-144 -7.23208,-9.20951 -34.67104,-36.59717 -44.17004,-44.08745 -71.85545,-56.66043 -164.56565,-75.17933 -252.1573,-50.36852 -34.10174,9.65951 -69.00712,27.6278 -97.84638,50.36852 -9.67409,7.62835 -36.95726,34.91152 -44.58561,44.58561 -22.74072,28.83926 -40.70901,63.74464 -50.36851,97.84638 -7.529,26.58024 -10.51494,48.49013 -10.51494,77.15546 0,28.66533 2.98594,50.57522 10.51494,77.15546 9.65301,34.07884 27.52066,68.80184 50.34946,97.84638 8.6801,11.04348 37.67241,39.45049 48.6065,47.62521 45.29281,33.86258 90.8869,51.5849 147.5,57.33292 11.9455,1.21284 45.24776,0.44243 59,-1.3649 z m -55.5,-101.26127 c -16.49544,-5.93817 -27.31497,-21.14389 -27.27616,-38.3338 0.0368,-16.2806 8.77477,-29.65698 24.04987,-36.81618 5.0255,-2.35537 6.9501,-2.68222 15.72629,-2.67074 8.09644,0.0106 11.09391,0.45234 15.74666,2.3206 6.63063,2.66247 15.45789,10.27633 19.06623,16.44539 12.11175,20.70703 3.65229,47.46414 -18.19288,57.54373 -7.18964,3.31738 -21.97148,4.08438 -29.12001,1.511 z m 1.80321,-109.67428 c -16.07312,-4.52861 -24.86462,-20.36621 -21.90261,-39.45682 3.19615,-20.59968 11.97046,-32.06912 44.0994,-57.64503 22.38398,-17.81854 29.80625,-25.36451 34.71701,-35.29563 3.33974,-6.75402 3.82356,-8.67198 4.12924,-16.36922 0.61237,-15.41988 -4.27299,-25.99175 -15.48419,-33.50764 -14.22821,-9.53846 -41.47192,-10.36899 -56.24255,-1.71456 -7.84431,4.59616 -12.46219,10.58893 -21.14765,27.444 -12.58995,24.43215 -18.63161,29.36389 -35.98941,29.37777 -8.74489,0.007 -10.05954,-0.25907 -16.19362,-3.27729 -11.33306,-5.57635 -15.97456,-13.64512 -15.99141,-27.79946 -0.0401,-33.69509 29.23722,-67.05132 71.73781,-81.73229 14.04889,-4.8529 27.11841,-6.88187 43.96477,-6.82527 26.46215,0.0889 49.78788,5.23242 70.13924,15.46632 30.2027,15.18775 46.96771,39.07839 50.31542,71.70094 2.20169,21.45487 -3.02755,40.41531 -15.98925,57.97466 -7.80203,10.56948 -20.12306,21.65296 -42.96541,38.64984 -11.825,8.79893 -23.02701,17.7414 -24.89335,19.87217 -1.86634,2.13076 -4.94712,7.27249 -6.84617,11.42605 -11.19065,24.476 -13.49094,27.64263 -22.27958,30.67057 -5.83504,2.01033 -17.8257,2.54882 -23.17769,1.04089 z"
         style="fill:#333333"
         inkscape:connector-curvature="0" />
      <path
         id="path3357"
         d="m -631.68717,747.14271 c -53.18058,-5.1336 -102.47984,-22.69013 -145.14848,-51.69049 -20.27275,-13.77866 -28.54835,-20.66884 -47.06692,-39.18742 -18.51858,-18.51857 -25.40876,-26.79417 -39.18742,-47.06692 -43.72642,-64.3353 -60.8548,-141.97479 -49.19223,-222.97853 5.76837,-40.06497 23.89794,-87.19416 46.73836,-121.5 13.648,-20.49901 23.30638,-32.22682 41.63315,-50.55359 36.08997,-36.08997 72.93196,-59.23138 119.9113,-75.3194 55.36393,-18.95931 116.86666,-21.95171 173.64229,-8.44853 56.61213,13.4643 106.0038,41.24581 148.05362,83.27623 18.98744,18.97868 25.79794,27.14298 39.67925,47.56676 54.34656,79.96086 67.81438,183.83967 35.80987,276.20551 -9.22663,26.6283 -20.51765,49.2519 -35.80987,71.75155 -13.88131,20.42378 -20.69181,28.58808 -39.67925,47.56676 -53.23586,53.21131 -117.58368,83.35049 -193.05362,90.4223 -12.54589,1.17559 -43.94894,1.15094 -56.33005,-0.0442 z m 68.38541,-33.29267 c 41.71668,-6.33472 83.31017,-22.26184 116.44464,-44.58935 29.11113,-19.61641 58.42493,-48.93021 78.04134,-78.04134 18.63269,-27.65128 33.58233,-63.02049 40.78802,-96.5 4.88313,-22.68829 5.64968,-30.76123 5.64968,-59.5 0,-28.72946 -0.7732,-36.88002 -5.63006,-59.34873 -7.56021,-34.97486 -21.56423,-68.04042 -41.13742,-97.13154 -19.19786,-28.53328 -48.80325,-58.08133 -77.71156,-77.56107 -33.92876,-22.86275 -77.40171,-39.20837 -120,-45.11945 -12.70727,-1.7633 -59.29273,-1.7633 -72,0 -42.59829,5.91108 -86.07124,22.2567 -120,45.11945 -29.11113,19.61641 -58.42493,48.93021 -78.04134,78.04134 -22.86509,33.93224 -39.23523,77.475 -45.11465,120 -1.77102,12.80951 -1.7809,59.37639 -0.0153,72 5.98062,42.7595 22.27224,86.07875 45.12993,120 19.47974,28.90831 49.02779,58.5137 77.56107,77.71156 35.20427,23.68627 80.56983,40.71225 120.48027,45.21703 5.225,0.58975 10.85,1.25774 12.5,1.48442 7.12107,0.97828 53.51077,-0.33297 63.05536,-1.78232 z m -55.55536,-100.99808 c -15.6466,-3.41316 -27.53713,-16.04498 -30.30303,-32.19221 -3.70452,-21.62683 10.75608,-41.48455 33.25661,-45.66896 20.44237,-3.80166 41.08046,11.35761 45.01699,33.06625 3.67521,20.26756 -11.1274,41.24605 -31.85706,45.14832 -6.58709,1.24 -9.05742,1.18582 -16.11351,-0.3534 z m -4.97283,-111.36917 c -6.47161,-2.28412 -14.16505,-10.35269 -16.96713,-17.79443 -1.9136,-5.08215 -2.18374,-7.38049 -1.81813,-15.46901 1.00239,-22.17661 9.49126,-34.29469 42.7136,-60.97473 34.33192,-27.57111 40.57881,-36.15179 40.4234,-55.52527 -0.12184,-15.18972 -5.5526,-25.31433 -17.53027,-32.68184 -7.00081,-4.30622 -13.02842,-5.8802 -25.15373,-6.56835 -10.47754,-0.59463 -18.77518,0.88885 -27.34974,4.8897 -9.14863,4.26871 -14.65709,10.92408 -23.77732,28.72803 -8.55355,16.69772 -13.01883,22.47902 -20.19108,26.14189 -4.32342,2.20797 -6.1249,2.4904 -15.87677,2.48907 -9.49725,-10e-4 -11.57681,-0.3095 -15.2222,-2.25613 -6.32256,-3.37624 -10.87228,-7.78279 -13.45987,-13.03632 -3.42948,-6.96281 -3.20223,-22.47257 0.49387,-33.70605 10.57788,-32.14917 43.9866,-58.29727 85.81345,-67.16388 10.17239,-2.15638 39.0613,-2.42234 51.37475,-0.47297 49.92008,7.90295 82.60276,32.82198 92.64411,70.63685 2.87545,10.8287 3.17285,33.85434 0.56185,43.5 -2.33084,8.61067 -7.74032,19.90169 -13.13259,27.41125 -6.62919,9.23214 -22.47141,24.0328 -38.07337,35.5702 -32.52168,24.04927 -32.21195,23.75084 -38.048,36.659 -10.69099,23.64632 -13.67411,27.41316 -23.78719,30.03645 -6.7437,1.7493 -18.07128,1.55116 -23.63764,-0.41346 z"
         style="fill:#333333"
         inkscape:connector-curvature="0" />
      <path
         id="path3355"
         d="m -629.35712,747.11986 c -4.4,-0.45841 -12.95,-1.54929 -19,-2.42419 -92.20941,-13.33456 -174.56229,-68.36555 -222.94036,-148.97632 -43.22056,-72.01697 -55.55429,-159.08505 -34.04385,-240.32735 28.75624,-108.60884 114.08117,-193.93252 222.65686,-222.65362 41.34073,-10.9357 82.67846,-13.21137 125.82735,-6.92688 82.73227,12.04968 158.88468,58.50091 207.86796,126.79473 55.51322,77.39802 72.83901,174.06981 47.66159,265.93487 -20.09418,73.31781 -68.00395,138.34272 -132.52955,179.87403 -50.5377,32.52812 -111.07718,50.14352 -170.70681,49.6712 -9.23625,-0.0731 -20.39319,-0.50807 -24.79319,-0.96647 z m 51.52198,-31.3507 c 33.15766,-3.2175 61.01185,-10.43678 89.52878,-23.20417 85.14693,-38.12138 147.17976,-117.45677 162.96136,-208.41551 2.33294,-13.44609 4.44685,-36.70614 4.44685,-48.93013 0,-12.22399 -2.11391,-35.48404 -4.44685,-48.93013 -15.77885,-90.94291 -77.82925,-170.30077 -162.96136,-208.41551 -43.88991,-19.65008 -93.82183,-27.89387 -140.30552,-23.16454 -17.82621,1.81367 -29.34538,3.79894 -44.15339,7.60961 -99.3109,25.55653 -177.43589,103.68152 -202.99242,202.99242 -3.81067,14.80801 -5.79594,26.32718 -7.60961,44.15339 -4.71301,46.32329 3.61357,96.7888 23.1498,140.30552 49.36227,109.9539 164.20806,177.46623 282.38236,165.99905 z m -46.12952,-104.90401 c -13.24537,-5.44865 -21.6796,-15.31284 -24.44878,-28.5939 -2.82599,-13.55354 1.25874,-26.69732 11.2265,-36.12441 7.74336,-7.32334 14.81723,-10.3184 25.32982,-10.72459 6.63825,-0.25649 9.79475,0.12374 14.41129,1.73597 20.32538,7.0982 31.27384,29.14398 24.50475,49.34268 -3.93487,11.74152 -14.1374,21.87412 -25.45455,25.28008 -7.44717,2.24126 -18.8907,1.83138 -25.56903,-0.91583 z m 3.05669,-108.94385 c -10.27159,-2.91533 -18.79095,-12.60128 -21.07148,-23.95689 -1.4105,-7.02337 -0.0841,-18.65498 3.07634,-26.97804 5.00414,-13.17836 14.43207,-23.43078 41.70905,-45.35662 31.2644,-25.13101 38.35234,-34.99531 38.32612,-53.33854 -0.0367,-25.65005 -16.94491,-40.28774 -46.40507,-40.17348 -17.23805,0.0669 -29.56291,5.07326 -37.63762,15.28853 -2.09739,2.6534 -7.04852,11.20006 -11.00251,18.99257 -7.92575,15.62008 -13.29543,22.34031 -20.79157,26.02095 -3.85151,1.89111 -6.28781,2.28502 -14.15241,2.28825 -11.53328,0.005 -17.7931,-2.37082 -24.00472,-9.10962 -6.64193,-7.20565 -8.65184,-15.28026 -6.93134,-27.84602 4.28776,-31.31603 31.36516,-59.97869 69.43606,-73.50123 14.32492,-5.08812 26.83928,-7.1535 43.5,-7.17926 65.28255,-0.10094 111.15206,29.74977 120.08375,78.14745 1.734,9.39594 1.5085,27.18054 -0.44784,35.31905 -2.0338,8.46081 -7.03988,19.42775 -12.69117,27.80284 -5.62961,8.34297 -20.11629,22.58718 -31.97989,31.44463 -5.20567,3.88659 -14.64445,10.9192 -20.97507,15.62804 -14.43474,10.73683 -19.22935,15.9261 -23.67116,25.61965 -8.84865,19.31076 -10.45721,22.14857 -14.5312,25.63575 -2.28619,1.9569 -5.76112,4.01157 -7.72207,4.56593 -6.10048,1.72461 -17.23963,2.07015 -22.1162,0.68606 z"
         style="fill:#333333"
         inkscape:connector-curvature="0" />
      <path
         id="path3353"
         d="m -622.35712,747.62797 c -1.65,-0.2312 -10.2,-1.35056 -19,-2.48744 -58.89652,-7.60896 -110.05324,-29.22233 -156.99553,-66.32958 -12.85282,-10.15998 -37.93609,-35.24325 -48.09607,-48.09607 -36.43573,-46.09279 -56.96071,-93.92304 -66.08279,-153.99553 -2.38059,-15.67715 -2.73635,-21.03261 -2.75681,-41.5 -0.0207,-20.74108 0.30131,-25.61322 2.74312,-41.5 6.66211,-43.34451 18.00572,-77.20882 37.22121,-111.11727 14.88101,-26.25964 30.09143,-46.19049 51.87527,-67.97433 32.42147,-32.42147 67.41982,-55.18722 110.28238,-71.73657 20.20348,-7.80061 41.60049,-13.1918 68.80922,-17.33716 15.76194,-2.4014 20.92191,-2.74238 41.5,-2.74238 20.54466,0 25.76366,0.34374 41.5,2.73332 42.98835,6.52783 77.18508,17.97858 111.11727,37.20752 26.25964,14.88101 46.19049,30.09143 67.97433,51.87527 32.42147,32.42147 55.18722,67.41982 71.73656,110.28238 7.80062,20.20348 13.19181,41.60049 17.33717,68.80922 2.4014,15.76194 2.74238,20.92191 2.74238,41.5 0,20.54466 -0.34374,25.76366 -2.73332,41.5 -9.12208,60.07249 -29.64706,107.90274 -66.08279,153.99553 -10.21114,12.91754 -35.24547,37.9337 -48.3348,48.29971 -55.4401,43.90545 -121.21952,67.5314 -191.2568,68.69359 -11.275,0.18709 -21.85,0.151 -23.5,-0.0802 z m 61,-33.26509 c 41.14526,-6.32834 81.69935,-21.95274 114.5,-44.11378 30.17483,-20.38695 58.6428,-48.85492 79.02975,-79.02975 22.585,-33.42815 38.31557,-74.84394 44.62894,-117.5 2.51153,-16.96903 2.51153,-60.03097 0,-77 -7.43841,-50.25738 -25.05663,-92.03014 -56.51629,-134 -8.31514,-11.09311 -35.77072,-39.16072 -46.6424,-47.68214 -40.42526,-31.68605 -85.18897,-51.25533 -135,-59.01771 -18.93733,-2.95113 -61.58121,-3.19858 -80,-0.46423 -50.32207,7.47056 -92.03365,25.06465 -134,56.52168 -11.09311,8.31514 -39.16072,35.77072 -47.68214,46.6424 -32.25471,41.15075 -51.88271,86.69246 -59.47655,138 -2.51153,16.96903 -2.51153,60.03097 0,77 6.31337,42.65606 22.04394,84.07185 44.62894,117.5 20.38695,30.17483 48.85492,58.6428 79.02975,79.02975 37.82273,25.5541 84.5831,41.84586 133,46.33848 11.83254,1.09794 51.87723,-0.28326 64.5,-2.2247 z m -57.15625,-102.12262 c -21.54655,-4.58592 -35.07962,-27.70838 -28.73098,-49.08941 8.1506,-27.44968 42.24379,-36.84611 63.22147,-17.42448 9.90078,9.16638 14.59486,22.53414 12.19997,34.74298 -1.80273,9.19005 -5.62155,16.15252 -12.19997,22.24298 -8.98071,8.31455 -22.56283,12.06659 -34.49049,9.52793 z m -5.29018,-111.74867 c -6.25009,-2.20666 -13.25598,-9.52456 -15.9103,-16.61886 -2.98766,-7.98523 -2.9389,-19.95104 0.11951,-29.33247 5.03849,-15.45515 14.30228,-26.0814 41.73722,-47.87566 20.25255,-16.08859 27.34755,-22.82322 32.45356,-30.8052 5.60958,-8.76919 6.79578,-12.89981 6.78874,-23.64005 -0.007,-10.64742 -2.06105,-17.68879 -7.24947,-24.8512 -9.4498,-13.04507 -33.56626,-19.43357 -53.92584,-14.28506 -16.29897,4.12166 -22.96693,10.49134 -34.45107,32.90996 -4.18803,8.17562 -9.13189,16.63738 -10.98636,18.8039 -11.46324,13.39222 -38.6047,12.81009 -49.17997,-1.05481 -12.37923,-16.23001 -2.73844,-51.05606 20.02969,-72.35453 25.4603,-23.81686 57.66853,-35.34598 94.52072,-33.83423 25.13723,1.03117 43.30421,5.28934 62.5,14.6494 35.36502,17.24435 53.27443,46.95328 51.20512,84.94132 -1.2015,22.05708 -9.71191,39.05702 -28.87145,57.67209 -4.58352,4.45327 -18.12633,15.38553 -30.09513,24.29392 -23.4542,17.45698 -27.42302,21.46269 -32.24994,32.54968 -7.02673,16.13979 -10.91526,22.7792 -15.09146,25.76775 -2.25658,1.61483 -5.85658,3.34287 -8,3.84008 -5.9772,1.38653 -18.38689,0.97398 -23.34357,-0.77603 z"
         style="fill:#333333"
         inkscape:connector-curvature="0" />
      <path
         id="path3351"
         d="m -619.35712,747.63585 c -2.75,-0.20418 -7.925,-0.82563 -11.5,-1.381 -3.575,-0.55537 -12.8,-1.94756 -20.5,-3.09376 -85.20563,-12.68347 -163.78101,-63.26577 -211.95087,-136.44174 -30.51713,-46.3593 -47.17421,-97.035 -51.74194,-157.41412 -2.4014,-31.7432 4.25589,-76.92801 16.79856,-114.01638 31.08852,-91.92799 103.53576,-164.37523 195.46375,-195.46375 37.11705,-12.55238 82.32409,-19.20875 114.01638,-16.78801 32.70962,2.49845 58.43412,7.5304 85.84462,16.79201 91.90666,31.05392 164.36973,103.51551 195.46375,195.45975 5.9365,17.55409 9.97799,34.14213 12.53046,51.4305 1.13683,7.7 2.5082,16.475 3.04749,19.5 3.44923,19.34747 1.62883,55.14191 -4.42915,87.09011 -24.43723,128.87543 -129.81725,230.90327 -258.04305,249.8346 -7.7,1.13683 -16.54878,2.52848 -19.66396,3.09256 -5.96385,1.0799 -36.81333,2.03202 -45.33604,1.39923 z m 37,-30.46795 c 37.26646,-3.20123 68.77901,-11.50275 100.0017,-26.34398 84.82745,-40.32144 145.17469,-121.058 158.91495,-212.607 7.3214,-48.78128 2.3609,-96.15704 -14.96707,-142.94449 -7.98076,-21.54893 -23.54206,-49.71914 -38.34294,-69.41119 -44.54578,-59.26663 -112.36028,-99.90394 -183.70515,-110.0839 -32.384,-4.62076 -52.41898,-4.62076 -84.80298,0 -82.65075,11.79315 -158.69085,63.64475 -202.06948,137.79078 -21.40798,36.59213 -33.33992,75.11298 -37.52695,121.15123 -4.0953,45.02976 5.73336,97.53763 26.39335,141.0017 38.42738,80.84276 112.38742,138.80827 199.60457,156.43827 12.47353,2.52139 19.58476,3.48312 40,5.40967 7.98417,0.75345 25.27109,0.56349 36.5,-0.40109 z m -33.1431,-105.05188 c -15.76544,-1.99915 -28.74187,-14.34481 -32.0311,-30.4741 -1.35157,-6.62765 -1.35157,-8.21749 0,-14.84514 3.63286,-17.81433 17.32895,-29.59041 35.36458,-30.40696 23.83833,-1.07925 41.60108,16.80418 40.08925,40.36163 -1.42971,22.27802 -20.9908,38.20906 -43.42273,35.36457 z M -621.948,500.73221 c -6.30117,-2.03216 -13.21821,-8.4057 -16.60297,-15.29842 -2.4968,-5.08448 -2.79965,-6.76172 -2.74719,-15.21444 0.0707,-11.38397 2.53647,-19.74319 8.58394,-29.0998 6.20303,-9.59729 13.72564,-16.91577 34.3571,-33.42483 32.77166,-26.22349 40.51851,-36.7244 40.48813,-54.88192 -0.0273,-16.34126 -7.67062,-29.79936 -20.6987,-36.44579 -13.68077,-6.97941 -38.94864,-6.95362 -52.68426,0.0538 -8.22907,4.19815 -14.61867,12.1534 -23.11345,28.77695 -8.75415,17.13113 -12.42486,21.89158 -19.92826,25.8445 -4.45978,2.34948 -6.19607,2.66675 -14.56346,2.66111 -7.8237,-0.005 -10.4249,-0.42254 -14.74164,-2.36475 -12.31819,-5.54225 -17.69514,-17.53087 -15.21418,-33.92201 4.75323,-31.40359 31.75175,-59.47459 69.8703,-72.64581 14.86909,-5.13777 24.90713,-6.69791 43.08552,-6.69647 51.73847,0.004 93.46205,20.16443 109.97447,53.1384 6.65228,13.28408 9.34715,25.10062 9.35196,41.00665 0.004,13.39339 -1.71476,21.64284 -6.8047,32.65933 -8.73809,18.91245 -21.65961,31.9462 -57.3748,57.87314 -20.92191,15.18796 -21.05835,15.36002 -32.88352,41.46753 -5.77931,12.75952 -11.36339,16.6191 -25.28002,17.47294 -6.00193,0.36825 -9.82626,0.0874 -13.07427,-0.96008 z"
         style="fill:#333333"
         inkscape:connector-curvature="0" />
      <path
         id="path3349"
         d="m -614.35712,747.1486 c -3.85,-0.45416 -11.05,-1.28425 -16,-1.84464 -65.16925,-7.37783 -117.80804,-28.51309 -166.27551,-66.76212 -12.46666,-9.8383 -39.69595,-37.0551 -49.34515,-49.32249 -38.71494,-49.21981 -60.02321,-102.12865 -66.85411,-166 -0.49998,-4.675 -1.38287,-12.8079 -1.96198,-18.07312 -1.03353,-9.39682 -0.88625,-12.32996 1.87929,-37.42688 7.16234,-64.99752 28.26648,-117.51937 66.89088,-166.47135 9.67438,-12.26116 36.93407,-39.52085 49.19523,-49.19523 48.99233,-38.65624 101.42025,-59.72263 166.47135,-66.89088 25.09692,-2.76554 28.03006,-2.91282 37.42688,-1.87929 5.26522,0.57911 13.39812,1.462 18.07312,1.96198 63.20932,6.76009 117.60553,28.59323 165.5,66.42712 12.7617,10.08101 39.87421,37.16613 49.82249,49.77214 38.27136,48.49577 59.61692,101.67993 66.73497,166.27551 3.19627,29.00576 3.19747,27.2813 -0.0384,55.5 -7.45815,65.03867 -28.52952,117.41197 -66.69653,165.77551 -9.87222,12.50964 -37.03734,39.67476 -49.54698,49.54698 -47.75972,37.69049 -108.44632,62.14534 -164.44246,66.2653 -4.30818,0.31698 -8.95805,0.96002 -10.33305,1.42899 -3.77003,1.28583 -22.56764,1.8482 -30.5,0.91247 z m 48.5,-31.04149 c 48.09104,-6.02091 93.75114,-24.87786 135,-55.75299 13.33313,-9.97997 40.47115,-36.57495 50.13803,-49.13477 26.54374,-34.48728 43.04034,-68.1546 52.91876,-108 11.18633,-45.12096 11.18633,-90.87904 0,-136 -9.87842,-39.8454 -26.37502,-73.51272 -52.91876,-108 -3.59819,-4.675 -13.76374,-15.70606 -22.5901,-24.51346 -23.82548,-23.7743 -45.41094,-39.28546 -75.04793,-53.92891 -59.49903,-29.3981 -127.63789,-36.69495 -192.5,-20.61442 -39.86328,9.88285 -73.69957,26.46754 -108,52.93566 -11.11072,8.57365 -37.86524,35.32489 -46.12677,46.12113 -26.86368,35.10566 -43.04226,68.11693 -52.93002,108 -11.18633,45.12096 -11.18633,90.87904 0,136 9.88069,39.85455 26.42269,73.609 52.92744,108 8.43956,10.95069 35.17866,37.68979 46.12935,46.12935 34.38797,26.50241 68.13034,43.03924 108,52.92983 35.13546,8.71616 67.55971,10.51604 105,5.82858 z m -51.21424,-104.91737 c -19.11835,-3.22151 -33.04412,-22.67501 -30.05516,-41.98534 2.60125,-16.80548 14.3241,-28.83845 31.15548,-31.97969 15.43748,-2.88109 32.62066,6.14685 39.89638,20.96131 2.43286,4.95367 2.71754,6.63329 2.71754,16.03333 0,9.47453 -0.27333,11.05659 -2.79864,16.19908 -3.28955,6.69876 -9.80457,13.4507 -16.48945,17.08907 -4.03222,2.19461 -15.31586,4.96046 -18.71191,4.58668 -0.55,-0.0605 -3.12141,-0.46753 -5.71424,-0.90444 z m -5.73219,-111.69815 c -6.32248,-2.23222 -13.24884,-9.51564 -16.00623,-16.83135 -1.88055,-4.98938 -2.16231,-7.30228 -1.7592,-14.44089 1.21311,-21.4824 9.62484,-33.32711 42.2492,-59.49187 24.17088,-19.38508 31.41361,-26.67183 36.82468,-37.04852 5.15171,-9.87931 5.80049,-24.61334 1.57984,-35.87839 -2.29656,-6.1296 -8.66435,-14.07296 -14.30686,-17.8468 -16.32282,-10.91705 -47.86584,-10.31453 -62.42317,1.19237 -7.45052,5.8893 -10.27112,9.87178 -19.31442,27.2706 -6.3338,12.18586 -9.35963,16.91973 -12.68695,19.84855 -6.14324,5.4075 -12.48171,7.30083 -22.57755,6.74402 -20.51651,-1.13154 -30.36093,-14.68775 -26.64868,-36.69645 6.61543,-39.22073 49.60237,-72.72556 98.99684,-77.16 41.35399,-3.7126 84.39196,9.29078 107.57546,32.50257 26.37531,26.40751 31.97168,68.92907 13.24673,100.64959 -8.36075,14.16332 -21.91326,26.72211 -56.48258,52.34104 -15.42976,11.43482 -19.59561,16.01208 -23.95908,26.32518 -10.87018,25.69177 -15.96208,30.29278 -33.3616,30.14531 -3.575,-0.0303 -8.50089,-0.76153 -10.94643,-1.62496 z"
         style="fill:#333333"
         inkscape:connector-curvature="0" />
    </g>
  </g>
</svg>
